<svg width="256" height="256" viewBox="0 0 256 256" fill="none" xmlns="http://www.w3.org/2000/svg">
<rect width="256" height="256" fill="white"/>
<path d="M43.8052 75.3984H195.939C205.898 75.3984 214.234 84.1406 214.234 94.1211V121.289C214.234 163.664 195.939 178.438 174.588 186.242C154.843 193.477 127.306 194.43 102.556 186.242C81.2045 178.438 62.9102 163.664 62.9102 121.289V94.1211C62.9102 84.1406 52.9246 75.3984 43.8052 75.3984Z" stroke="#2FC1A6" stroke-width="15" stroke-linecap="round" stroke-linejoin="round"/>
<path d="M128.591 133.312C140.231 133.312 149.638 123.906 149.638 112.266C149.638 100.625 140.231 91.2188 128.591 91.2188C116.95 91.2188 107.544 100.625 107.544 112.266C107.544 123.906 116.95 133.312 128.591 133.312Z" stroke="#2FC1A6" stroke-width="15" stroke-linecap="round" stroke-linejoin="round"/>
<path d="M103.509 185.758L153.671 135.211" stroke="#2FC1A6" stroke-width="15" stroke-linecap="round" stroke-linejoin="round"/>
</svg>
