<svg width="48" height="48" viewBox="0 0 48 48" fill="none" xmlns="http://www.w3.org/2000/svg">
<path d="M24 6C24 6 36.4357 8.94828 39 17.6552C41.5643 26.3621 38.6571 36.3103 35.1429 42C31.6286 36.3103 28.7214 26.3621 31.2857 17.6552C33.85 8.94828 24 6Z" fill="#3D8BFF"/>
<path d="M24 6C24 6 11.5643 8.94828 9 17.6552C6.43571 26.3621 9.34286 36.3103 12.8571 42C16.3714 36.3103 19.2786 26.3621 16.7143 17.6552C14.15 8.94828 24 6Z" fill="#3D8BFF"/>
<path d="M11.5 24C11.5 24 18.0086 21.6897 24 21.6897C29.9914 21.6897 36.5 24 36.5 24C36.5 24 29.9914 26.3103 24 26.3103C18.0086 26.3103 11.5 24 11.5 24Z" fill="#3D8BFF"/>
</svg>
