<svg width="24" height="24" viewBox="0 0 24 24" fill="none" xmlns="http://www.w3.org/2000/svg">
<g clip-path="url(#clip0_301_2)">
<path d="M11.9983 0.8125C5.8308 0.8125 0.8125 5.8308 0.8125 11.9983C0.8125 18.1658 5.8308 23.1841 11.9983 23.1841C18.1658 23.1841 23.1841 18.1658 23.1841 11.9983C23.1841 5.8308 18.1658 0.8125 11.9983 0.8125Z" fill="url(#paint0_linear_301_2)"/>
<path d="M12.001 3.52632L20.4747 7.76316V13.8421C20.4747 16.9211 17.5273 19.5789 13.8431 20.3158L12.001 20.8947L10.1588 20.3158C6.47467 19.5789 3.52731 16.9211 3.52731 13.8421V7.76316L12.001 3.52632Z" fill="url(#paint1_linear_301_2)"/>
</g>
<defs>
<linearGradient id="paint0_linear_301_2" x1="12" y1="0.8125" x2="12" y2="23.1875" gradientUnits="userSpaceOnUse">
<stop stop-color="#02A4E3"/>
<stop offset="1" stop-color="#021E40"/>
</linearGradient>
<linearGradient id="paint1_linear_301_2" x1="12.001" y1="3.52632" x2="12.001" y2="20.8947" gradientUnits="userSpaceOnUse">
<stop stop-color="#00D5FF"/>
<stop offset="1" stop-color="#02A4E3"/>
</linearGradient>
<clipPath id="clip0_301_2">
<rect width="22.375" height="22.375" fill="white" transform="translate(0.8125 0.8125)"/>
</clipPath>
</defs>
</svg>
